<?xml version="1.0" encoding="utf-8"?>
<!-- Generator: Adobe Illustrator 14.0.0, SVG Export Plug-In . SVG Version: 6.00 Build 43363)  -->
<!DOCTYPE svg PUBLIC "-//W3C//DTD SVG 1.1//EN" "http://www.w3.org/Graphics/SVG/1.1/DTD/svg11.dtd">
<svg version="1.1" id="Layer_1" xmlns="http://www.w3.org/2000/svg" xmlns:xlink="http://www.w3.org/1999/xlink" x="0px" y="0px"
	 width="58.5px" height="62.474px" viewBox="0 0 58.5 62.474" enable-background="new 0 0 58.5 62.474" xml:space="preserve">
<g>
	<rect x="11.875" y="10.992" fill="#EE3124" width="34.813" height="34.812"/>
	<path fill="#5A91CC" d="M22.616,32.458c1.433,2.164,3.89,3.592,6.681,3.592c4.425,0,8.009-3.585,8.009-8.008
		c0-0.431-0.033-0.854-0.1-1.267c-0.373-2.344-1.764-4.35-3.705-5.55c-1.221-0.755-2.662-1.191-4.204-1.191
		c-1.36,0-2.642,0.341-3.764,0.938c-0.945,0.504-1.776,1.192-2.447,2.016c-0.936,1.149-1.56,2.563-1.74,4.112
		c-0.037,0.309-0.056,0.623-0.056,0.941C21.29,29.674,21.778,31.191,22.616,32.458"/>
	<polyline fill="#0054A6" points="27.127,25.506 26.982,25.788 26.616,25.585 26.702,25.438 27.127,25.506 	"/>
	<polyline fill="#0054A6" points="29.283,23.934 29.732,24.09 29.763,24.403 28.629,25.173 28.061,25.031 28.061,24.818 
		28.418,24.503 29.283,23.934 	"/>
	<polyline fill="#0054A6" points="28.662,23.979 28.298,24.364 27.827,24.666 27.636,24.545 27.987,24.039 28.293,24.015 
		28.491,23.655 28.595,23.659 28.662,23.979 	"/>
	<polyline fill="#0054A6" points="29.344,22.84 28.765,23.429 28.508,23.243 29.233,22.667 29.344,22.84 	"/>
	<polyline fill="#0054A6" points="23.989,25.321 23.911,25.916 23.659,25.886 23.817,24.951 23.946,24.964 23.99,25.143 
		23.989,25.321 	"/>
	<polyline fill="#0054A6" points="24.092,26.116 24.025,26.425 23.872,26.4 23.792,26.276 23.844,26.056 24.092,26.116 	"/>
	<polyline fill="#0054A6" points="24.097,26.565 24.118,26.742 23.962,26.742 23.938,26.579 24.097,26.565 	"/>
	<polyline fill="#0054A6" points="24.16,26.88 24.2,26.977 24.07,27.034 24.025,26.929 24.16,26.88 	"/>
	<path fill="#0054A6" d="M24.106,27.23l0.006-0.076c-0.001-0.007,0.062-0.061,0.062-0.061l0.044,0.094
		C24.217,27.188,24.108,27.23,24.106,27.23"/>
	<polyline fill="#0054A6" points="29.388,26.725 29.439,26.618 29.6,26.707 29.563,26.848 29.618,26.889 29.542,27.298 
		29.221,27.265 29.424,26.765 29.388,26.725 	"/>
	<polyline fill="#0054A6" points="29.057,26.967 29.182,26.997 29.128,27.158 28.954,27.109 29.057,26.967 	"/>
	<path fill="#0054A6" d="M32.895,33.448c-0.094,0.179-0.143,0.246-0.307,0.423c-0.17,0.186-0.504,0.37-0.607,0.417l-0.404,0.174
		l-0.102,0.014L31.43,34.32l0.709-0.695l0.322-0.068l0.252-0.147L32.895,33.448"/>
	<polyline fill="#0054A6" points="32.528,34.383 32.407,34.47 32.307,34.368 32.442,34.287 32.528,34.383 	"/>
	<polyline fill="#0054A6" points="29.897,28.304 29.836,28.547 29.736,28.528 29.743,28.338 29.842,28.352 29.866,28.291 
		29.897,28.304 	"/>
	<polyline fill="#0054A6" points="24.042,27.406 23.899,27.455 23.864,27.304 23.996,27.255 24.042,27.406 	"/>
	<path fill="#0054A6" d="M22.618,32.457c-0.839-1.266-1.327-2.783-1.327-4.415c0-0.318,0.02-0.633,0.056-0.941l0.637-0.71
		l0.632-0.09l-0.128-0.393l0.398-1.39l0.167-0.479l0.034-1.052c0.67-0.822,1.502-1.51,2.446-2.014l0.389,0.069l1.112,0.166
		c0,0,1.122,0.248,1.676,0.208c0.779-0.056,1.227-0.362,1.414-0.487l0.078,0.042l-0.281,0.22l0.219,0.085l0.086,0.248l-0.021,0.35
		l-0.096,0.076l-0.498,0.325l-0.638,0.298l-0.705,0.679l0.167,0.147l-0.24,0.455l-0.282-0.035l0.008-0.129l-0.438-0.286
		l-0.463,0.485l0.603,0.117l0.047,0.159l-0.395,0.477l0.377,0.142l-0.416,0.568l-0.571-0.047l-0.206,0.225l-0.68-0.387l-1.107-0.372
		l-0.267,0.462l-0.192-0.15l0.138-0.338l0.28-0.226c0,0-0.331-0.772-0.35-0.786c-0.106-0.078-0.223-0.18-0.347-0.214
		c-0.053-0.015-0.103-0.021-0.15-0.021c-0.177,0-0.444,0.157-0.444,0.315l0.011,0.231l0.009,0.052l0.291,0.244l-0.024,0.181
		l-0.392,0.018l-0.494,1.233l0.76,1.141l0.105,0.212c0.008,0.016,0.193,0.845,0.275,1.13c0.155,0.545,0.206,1.272,0.219,1.291
		l0.8,1.164l-0.059,0.488l-1.216,0.914l-0.455-0.114l-0.553,0.46"/>
	<path fill="#0054A6" d="M33.5,21.227l-0.988,0.098l-0.141-0.062l-0.615,0.059l-0.152-0.046l-1.078,0.245l-0.043,0.386l1.303,1.427
		l-0.027,0.303l-0.197-0.011l-0.174,0.387l0.271,1.23l-0.408,0.384l0.057,0.359l-0.152,0.004l-0.123-0.247l-0.498-0.155L30.18,26.06
		l-0.364,0.373l0.167,0.269l0.299-0.022l0.053,0.134l0.117-0.015l0.213-0.601l0.125,0.088l-0.145,0.326l0.053,0.061L30.6,27.011
		l-0.332,0.086c-0.027-0.122-0.094-0.213-0.094-0.213l-0.117-0.008l-0.033,0.253l-0.192,0.054l-0.112,0.179
		c-0.05,0.055-0.166,0.081-0.286,0.074c-0.104-0.006-0.283-0.052-0.281-0.052c0.003,0-0.066,0.082-0.066,0.077
		c0-0.001,0.048,0.046,0.046,0.049c0,0,0.072,0.052,0.051,0.157c-0.019,0.085-0.11,0.171-0.256,0.171
		c-0.048,0-0.093-0.005-0.136-0.016l-0.071-0.018l-0.175,0.438l0.471,0.355c0.019,0.014,0.214-0.143,0.464-0.374
		c0.075-0.069,0.217-0.122,0.305-0.122c0.064,0,0.107,0.028,0.17,0.058c0.18,0.083,0.25,0.383,0.246,0.378l-0.078,0.015l0.023,0.056
		l0.229-0.045l-0.189-0.479l0.057-0.016l0.406,0.403l1.143,0.322l-0.225,0.587l-0.9-0.235l-0.211,0.026l-0.449-0.3l-1.476-0.223
		l-0.759,0.374c-0.109,0.054-0.208,0.175-0.327,0.404c-0.221,0.422-0.337,0.678-0.372,0.824l-0.051,0.21l0.477,0.885l1.135,1.143
		c0.059,0.059-0.023,0.298-0.197,0.578c-0.048,0.077-0.13,0.296-0.244,0.651c-0.078,0.242-0.189,0.445-0.326,0.595
		c-0.303,0.33-0.463,0.512-0.472,0.537l-0.19,0.536c0,0.016,0.025,0.036,0.063,0.049c0.276,0.093,0.561,0.141,0.841,0.141
		c0.428,0,0.9-0.118,1.321-0.333c0.238-0.12,0.479-0.263,0.718-0.425c0.242-0.163,0.451-0.32,0.623-0.472
		c0.023-0.023,0.143-0.132,0.352-0.328c0.164-0.153,0.311-0.261,0.436-0.322c0.062-0.029,0.104-0.061,0.113-0.087l0.391-0.989
		l0.869-0.83l0.447-0.73l-0.111-0.227l-0.443,0.089l-1.094-1.254l0.264-0.028l1.027,1.064l0.555-0.447l0.361-0.517l0.166-0.27
		l0.064-0.142l-0.406-0.324l-0.469,0.133l-0.27-0.234l0.598-0.183l0.471,0.08l0.73-0.164l0.959,0.777l0.34-0.002
		c0.066-0.279,0.076-0.373,0.076-0.662c0-0.311-0.041-0.628-0.119-0.947c-0.039-0.156-0.062-0.259-0.068-0.311l-0.014-0.11
		l0.188-0.164l0.398,0.094l0.627-0.535v0.001C36.833,24.433,35.442,22.428,33.5,21.227L33.5,21.227 M33.741,21.664l-0.354,0.227
		l-0.293,0.34l-0.865-0.498l1.256-0.267L33.741,21.664z"/>
	<path fill="#0054A6" d="M16.633,4.116l-0.696-2.013l-0.705,2.013H16.633 M15.098,0.776h1.677l2.085,5.085h-1.589l-0.302-0.828
		h-2.065l-0.302,0.828h-1.589L15.098,0.776z"/>
	<path fill="#0054A6" d="M22.834,4.653c0.778,0,1.147-0.425,1.147-1.334c0-0.671-0.275-1.335-1.14-1.335h-0.43v2.669H22.834
		 M20.81,0.776h2.294c1.77,0,2.48,1.433,2.48,2.61c0,1.155-0.637,2.475-2.192,2.475H20.81V0.776z"/>
	<polyline fill="#0054A6" points="27.902,0.776 31.329,0.776 31.329,1.851 29.503,1.851 29.503,2.745 31.174,2.745 31.174,3.818 
		29.503,3.818 29.503,4.788 31.356,4.788 31.356,5.861 27.902,5.861 27.902,0.776 	"/>
	<polyline fill="#0054A6" points="35.409,5.861 33.805,5.861 33.805,0.776 35.241,0.776 36.608,2.835 37.977,0.776 39.411,0.776 
		39.411,5.861 37.809,5.861 37.85,3.133 37.836,3.117 36.608,4.981 35.381,3.117 35.368,3.133 35.409,5.861 	"/>
	<polyline fill="#0054A6" points="42.018,0.776 45.444,0.776 45.444,1.851 43.62,1.851 43.62,2.745 45.29,2.745 45.29,3.818 
		43.62,3.818 43.62,4.788 45.471,4.788 45.471,5.861 42.018,5.861 42.018,0.776 	"/>
	<path fill="#0054A6" d="M2.435,52.614h0.921l-0.479-1.191L2.435,52.614 M4.359,54.009H3.924l-0.395-0.97H2.27l-0.373,0.97H1.461
		l1.273-3.311h0.299L4.359,54.009z"/>
	<path fill="#0054A6" d="M5.492,54.114c-0.261,0-0.443,0.137-0.443,0.329c0,0.217,0.191,0.332,0.544,0.332
		c0.339,0,0.537-0.115,0.537-0.312C6.129,54.188,5.731,54.114,5.492,54.114 M5.592,52.214c-0.214,0-0.388,0.179-0.388,0.391
		c0,0.236,0.157,0.396,0.392,0.396c0.217,0,0.374-0.169,0.374-0.406C5.97,52.388,5.795,52.214,5.592,52.214z M6.513,52.176h-0.4
		c0.152,0.168,0.204,0.289,0.204,0.472c0,0.179-0.091,0.387-0.182,0.488c-0.262,0.309-0.791,0.154-0.791,0.41
		c0,0.12,0.203,0.192,0.595,0.279c0.417,0.093,0.564,0.328,0.564,0.604c0,0.429-0.343,0.689-0.921,0.689
		c-0.524,0-0.898-0.274-0.898-0.655c0-0.319,0.151-0.507,0.49-0.599c-0.135-0.092-0.195-0.179-0.195-0.274
		c0-0.142,0.122-0.261,0.309-0.31v-0.01c-0.144-0.068-0.252-0.16-0.326-0.274c-0.068-0.111-0.104-0.246-0.104-0.406
		c0-0.463,0.326-0.747,0.851-0.747h0.805V52.176z"/>
	<path fill="#0054A6" d="M8.417,52.706c-0.014-0.328-0.183-0.535-0.456-0.535c-0.296,0-0.474,0.192-0.525,0.535H8.417 M8.765,53.797
		c-0.235,0.174-0.447,0.256-0.777,0.256c-0.608,0-0.947-0.555-0.947-1.154c0-0.656,0.373-1.1,0.912-1.1
		c0.518,0,0.847,0.391,0.847,1.191H7.427c0.061,0.43,0.282,0.652,0.655,0.652c0.235,0,0.456-0.097,0.683-0.261V53.797z"/>
	<path fill="#0054A6" d="M9.918,52.127h0.009c0.147-0.207,0.364-0.328,0.581-0.328c0.37,0,0.665,0.28,0.665,0.873v1.337h-0.387
		v-1.341c0-0.319-0.146-0.526-0.382-0.526c-0.169,0-0.304,0.087-0.486,0.313v1.554H9.532v-2.166h0.387V52.127"/>
	<path fill="#0054A6" d="M13.471,52.406c-0.223-0.164-0.369-0.212-0.539-0.212c-0.353,0-0.596,0.294-0.596,0.733
		c0,0.449,0.262,0.719,0.66,0.719c0.166,0,0.322-0.048,0.518-0.145v0.425c-0.131,0.066-0.378,0.126-0.582,0.126
		c-0.582,0-0.99-0.449-0.99-1.086c0-0.714,0.374-1.168,0.964-1.168c0.226,0,0.378,0.058,0.565,0.149V52.406"/>
	<path fill="#0054A6" d="M15.545,52.706c-0.013-0.328-0.182-0.535-0.456-0.535c-0.295,0-0.473,0.192-0.524,0.535H15.545
		 M15.894,53.797c-0.235,0.174-0.448,0.256-0.778,0.256c-0.607,0-0.947-0.555-0.947-1.154c0-0.656,0.374-1.1,0.912-1.1
		c0.518,0,0.848,0.391,0.848,1.191h-1.372c0.061,0.43,0.281,0.652,0.655,0.652c0.234,0,0.456-0.097,0.683-0.261V53.797z"/>
	<path fill="#0054A6" d="M19.378,52.267c-0.13-0.058-0.229-0.082-0.359-0.082c-0.374,0-0.626,0.299-0.626,0.753
		c0,0.406,0.147,0.709,0.596,0.709h0.39V52.267 M19.766,54.009h-0.821c-0.582,0-0.947-0.439-0.947-1.134
		c0-0.627,0.404-1.076,0.974-1.076c0.13,0,0.252,0.023,0.407,0.087v-1.168h0.388V54.009z"/>
	<path fill="#0054A6" d="M21.901,52.706c-0.013-0.328-0.182-0.535-0.456-0.535c-0.295,0-0.473,0.192-0.525,0.535H21.901
		 M22.249,53.797c-0.234,0.174-0.447,0.256-0.777,0.256c-0.608,0-0.947-0.555-0.947-1.154c0-0.656,0.374-1.1,0.912-1.1
		c0.517,0,0.847,0.391,0.847,1.191h-1.372c0.062,0.43,0.282,0.652,0.656,0.652c0.234,0,0.456-0.097,0.682-0.261V53.797z"/>
	<rect x="24.444" y="50.718" fill="#0054A6" width="0.387" height="3.291"/>
	<polyline fill="#0054A6" points="25.656,51.118 25.656,50.554 26.038,50.554 26.038,51.118 25.938,51.779 25.755,51.779 
		25.656,51.118 	"/>
	<polyline fill="#0054A6" points="28.586,51.143 27.332,51.143 27.332,52.137 28.543,52.137 28.543,52.561 27.332,52.561 
		27.332,53.584 28.625,53.584 28.625,54.009 26.906,54.009 26.906,50.718 28.586,50.718 28.586,51.143 	"/>
	<path fill="#0054A6" d="M29.729,52.127h0.008c0.148-0.207,0.365-0.328,0.582-0.328c0.371,0,0.666,0.28,0.666,0.873v1.337h-0.387
		v-1.341c0-0.319-0.148-0.526-0.383-0.526c-0.17,0-0.305,0.087-0.486,0.313v1.554h-0.387v-2.166h0.387V52.127"/>
	<polyline fill="#0054A6" points="31.522,51.843 31.944,51.843 32.469,53.174 32.983,51.843 33.395,51.843 32.534,54.053 
		32.405,54.053 31.522,51.843 	"/>
	<path fill="#0054A6" d="M34.213,51.441c-0.125,0-0.229-0.116-0.229-0.256c0-0.139,0.104-0.255,0.229-0.255
		c0.127,0,0.232,0.116,0.232,0.255C34.446,51.325,34.34,51.441,34.213,51.441 M34.407,54.009H34.02v-2.167h0.387V54.009z"/>
	<path fill="#0054A6" d="M35.7,51.843v0.497h0.008c0.197-0.382,0.383-0.541,0.566-0.541c0.156,0,0.303,0.082,0.465,0.251
		l-0.205,0.372c-0.117-0.126-0.27-0.213-0.361-0.213c-0.264,0-0.473,0.295-0.473,0.666v1.134h-0.387v-2.166H35.7"/>
	<path fill="#0054A6" d="M37.502,52.903c0,0.459,0.256,0.763,0.629,0.763c0.408,0,0.664-0.289,0.664-0.758
		c0-0.42-0.277-0.724-0.664-0.724C37.768,52.185,37.502,52.488,37.502,52.903 M39.192,52.903c0,0.687-0.43,1.149-1.055,1.149
		c-0.6,0-1.029-0.483-1.029-1.149c0-0.622,0.447-1.104,1.029-1.104C38.749,51.799,39.192,52.262,39.192,52.903z"/>
	<path fill="#0054A6" d="M40.323,52.127h0.01c0.148-0.207,0.365-0.328,0.582-0.328c0.369,0,0.664,0.28,0.664,0.873v1.337h-0.387
		v-1.341c0-0.319-0.148-0.526-0.381-0.526c-0.17,0-0.305,0.087-0.488,0.313v1.554h-0.385v-2.166h0.385V52.127"/>
	<path fill="#0054A6" d="M42.821,52.127h0.008c0.148-0.207,0.365-0.328,0.582-0.328c0.369,0,0.664,0.28,0.664,0.873v1.337h-0.387
		v-1.341c0-0.319-0.146-0.526-0.381-0.526c-0.17,0-0.305,0.087-0.486,0.313v1.554h-0.387v-2.166h0.387V52.127"/>
	<path fill="#0054A6" d="M46.221,52.706c-0.014-0.328-0.184-0.535-0.457-0.535c-0.295,0-0.473,0.192-0.525,0.535H46.221
		 M46.569,53.797c-0.236,0.174-0.449,0.256-0.779,0.256c-0.607,0-0.947-0.555-0.947-1.154c0-0.656,0.375-1.1,0.912-1.1
		c0.518,0,0.848,0.391,0.848,1.191h-1.371c0.061,0.43,0.281,0.652,0.656,0.652c0.232,0,0.455-0.097,0.682-0.261V53.797z"/>
	<path fill="#0054A6" d="M47.711,51.843v0.284c0.201-0.223,0.389-0.328,0.57-0.328c0.248,0,0.451,0.135,0.582,0.391
		c0.17-0.212,0.373-0.391,0.652-0.391c0.395,0,0.646,0.338,0.646,0.849v1.361h-0.387v-1.341c0-0.328-0.184-0.508-0.404-0.508
		c-0.125-0.005-0.295,0.116-0.434,0.275v1.573h-0.387v-1.346c0-0.353-0.16-0.503-0.352-0.503c-0.195,0-0.326,0.068-0.488,0.275
		v1.573h-0.385v-2.166H47.711"/>
	<path fill="#0054A6" d="M52.297,52.706c-0.012-0.328-0.182-0.535-0.455-0.535c-0.295,0-0.473,0.192-0.525,0.535H52.297
		 M52.645,53.797c-0.234,0.174-0.447,0.256-0.777,0.256c-0.607,0-0.947-0.555-0.947-1.154c0-0.656,0.375-1.1,0.912-1.1
		c0.518,0,0.848,0.391,0.848,1.191h-1.371c0.061,0.43,0.281,0.652,0.654,0.652c0.234,0,0.457-0.097,0.682-0.261V53.797z"/>
	<path fill="#0054A6" d="M53.799,52.127h0.01c0.146-0.207,0.363-0.328,0.582-0.328c0.367,0,0.664,0.28,0.664,0.873v1.337h-0.387
		v-1.341c0-0.319-0.148-0.526-0.383-0.526c-0.17,0-0.305,0.087-0.486,0.313v1.554h-0.387v-2.166h0.387V52.127"/>
	<path fill="#0054A6" d="M56.37,51.843h0.617v0.386H56.37v1.109c0,0.256,0.166,0.328,0.279,0.328c0.139,0,0.281-0.054,0.438-0.158
		v0.399c-0.135,0.082-0.344,0.146-0.469,0.146c-0.422,0-0.635-0.29-0.635-0.681v-1.144h-0.338V52.18l0.725-0.786V51.843"/>
	<path fill="#0054A6" d="M2.729,59.284c-0.014-0.327-0.184-0.534-0.456-0.534c-0.296,0-0.475,0.192-0.526,0.534H2.729 M3.076,60.376
		c-0.233,0.174-0.447,0.256-0.777,0.256c-0.607,0-0.946-0.556-0.946-1.154c0-0.656,0.373-1.1,0.912-1.1
		c0.517,0,0.847,0.391,0.847,1.191H1.739c0.06,0.43,0.282,0.652,0.655,0.652c0.234,0,0.456-0.097,0.682-0.261V60.376z"/>
	<path fill="#0054A6" d="M4.217,58.422h0.616v0.386H4.217v1.109c0,0.256,0.164,0.328,0.277,0.328c0.139,0,0.282-0.054,0.439-0.158
		v0.399c-0.136,0.082-0.345,0.146-0.471,0.146c-0.421,0-0.634-0.29-0.634-0.682v-1.143H3.491v-0.049l0.727-0.786V58.422"/>
	<path fill="#0054A6" d="M8.072,58.846c-0.13-0.058-0.229-0.082-0.36-0.082c-0.374,0-0.626,0.299-0.626,0.753
		c0,0.406,0.148,0.709,0.596,0.709h0.391V58.846 M8.458,60.588h-0.82c-0.582,0-0.947-0.439-0.947-1.134
		c0-0.628,0.404-1.076,0.973-1.076c0.13,0,0.252,0.023,0.408,0.087v-1.167h0.387V60.588z"/>
	<path fill="#0054A6" d="M10.506,59.284c-0.013-0.327-0.183-0.534-0.455-0.534c-0.297,0-0.474,0.192-0.526,0.534H10.506
		 M10.854,60.376c-0.234,0.174-0.447,0.256-0.777,0.256c-0.607,0-0.947-0.556-0.947-1.154c0-0.656,0.374-1.1,0.912-1.1
		c0.518,0,0.848,0.391,0.848,1.191H9.517c0.061,0.43,0.281,0.652,0.654,0.652c0.235,0,0.457-0.097,0.683-0.261V60.376z"/>
	<rect x="12.875" y="57.297" fill="#0054A6" width="0.387" height="3.291"/>
	<path fill="#0054A6" d="M14.904,59.517c-0.33,0.125-0.617,0.251-0.617,0.507c0,0.178,0.118,0.303,0.279,0.303
		c0.121,0,0.233-0.066,0.338-0.178V59.517 M15.569,60.463c-0.178,0.13-0.252,0.169-0.374,0.169c-0.169,0-0.26-0.068-0.295-0.224
		c-0.169,0.15-0.347,0.224-0.526,0.224c-0.286,0-0.477-0.251-0.477-0.531c0-0.43,0.352-0.56,0.664-0.686l0.343-0.136v-0.114
		c0-0.271-0.117-0.383-0.351-0.383c-0.214,0-0.431,0.111-0.617,0.358v-0.468c0.151-0.198,0.365-0.295,0.646-0.295
		c0.396,0,0.708,0.222,0.708,0.714v1.115c0,0.082,0.026,0.11,0.074,0.11c0.039,0,0.117-0.044,0.204-0.116V60.463z"/>
	<polyline fill="#0054A6" points="20.28,60.588 19.854,60.588 19.854,58.025 19.845,58.025 18.933,59.3 18.864,59.3 17.952,58.025 
		17.943,58.025 17.943,60.588 17.517,60.588 17.517,57.298 17.917,57.298 18.898,58.647 19.883,57.298 20.28,57.298 20.28,60.588 	
		"/>
	<path fill="#0054A6" d="M21.95,59.517c-0.33,0.125-0.617,0.251-0.617,0.507c0,0.178,0.117,0.303,0.278,0.303
		c0.122,0,0.234-0.066,0.339-0.178V59.517 M22.614,60.463c-0.178,0.13-0.252,0.169-0.373,0.169c-0.17,0-0.261-0.068-0.296-0.224
		c-0.169,0.15-0.347,0.224-0.525,0.224c-0.286,0-0.478-0.251-0.478-0.531c0-0.43,0.352-0.56,0.664-0.686l0.344-0.136v-0.114
		c0-0.271-0.118-0.383-0.352-0.383c-0.213,0-0.431,0.111-0.617,0.358v-0.468c0.152-0.198,0.365-0.295,0.646-0.295
		c0.396,0,0.708,0.222,0.708,0.714v1.115c0,0.082,0.026,0.11,0.074,0.11c0.039,0,0.117-0.044,0.204-0.116V60.463z"/>
	<path fill="#0054A6" d="M24.001,58.146h-0.238l-0.377-0.42l-0.361,0.42h-0.23l0.396-0.729h0.404L24.001,58.146 M23.589,60.588
		h-0.386v-2.167h0.386V60.588z"/>
	<path fill="#0054A6" d="M24.835,58.422h0.617v0.386h-0.617v1.109c0,0.256,0.165,0.328,0.278,0.328c0.139,0,0.282-0.054,0.439-0.158
		v0.399c-0.136,0.082-0.345,0.146-0.47,0.146c-0.422,0-0.635-0.29-0.635-0.682v-1.143h-0.338v-0.049l0.725-0.786V58.422"/>
	<path fill="#0054A6" d="M26.48,58.422v0.497h0.009c0.196-0.382,0.382-0.541,0.565-0.541c0.155,0,0.304,0.082,0.465,0.251
		l-0.205,0.372c-0.117-0.126-0.27-0.213-0.36-0.213c-0.265,0-0.474,0.295-0.474,0.666v1.134h-0.386v-2.166H26.48"/>
	<path fill="#0054A6" d="M28.23,58.021c-0.126,0-0.23-0.116-0.23-0.255c0-0.14,0.104-0.256,0.23-0.256s0.229,0.116,0.229,0.256
		C28.459,57.904,28.356,58.021,28.23,58.021 M28.42,60.588h-0.387v-2.167h0.387V60.588z"/>
	<path fill="#0054A6" d="M30.35,58.98c-0.219-0.159-0.422-0.226-0.565-0.226c-0.157,0-0.257,0.082-0.257,0.196
		c0,0.098,0.131,0.214,0.475,0.436c0.32,0.236,0.439,0.386,0.439,0.608c0,0.381-0.275,0.637-0.645,0.637
		c-0.238,0-0.426-0.053-0.678-0.198V59.97c0.252,0.193,0.482,0.285,0.639,0.285c0.156-0.01,0.287-0.092,0.287-0.246
		c0-0.299-0.912-0.458-0.912-1.042c0-0.367,0.252-0.589,0.643-0.589c0.182,0,0.369,0.058,0.574,0.179V58.98"/>
	<path fill="#0054A6" d="M32.407,59.284c-0.012-0.327-0.182-0.534-0.455-0.534c-0.297,0-0.475,0.192-0.527,0.534H32.407
		 M32.754,60.376c-0.234,0.174-0.447,0.256-0.777,0.256c-0.609,0-0.947-0.556-0.947-1.154c0-0.656,0.373-1.1,0.912-1.1
		c0.518,0,0.848,0.391,0.848,1.191h-1.373c0.061,0.43,0.283,0.652,0.656,0.652c0.234,0,0.455-0.097,0.682-0.261V60.376z"/>
	<path fill="#0054A6" d="M36.067,58.846c-0.131-0.058-0.23-0.082-0.361-0.082c-0.373,0-0.625,0.299-0.625,0.753
		c0,0.406,0.148,0.709,0.594,0.709h0.393V58.846 M36.454,60.588h-0.822c-0.582,0-0.945-0.439-0.945-1.134
		c0-0.628,0.402-1.076,0.973-1.076c0.129,0,0.252,0.023,0.408,0.087v-1.167h0.387V60.588z"/>
	<path fill="#0054A6" d="M38.5,59.284c-0.012-0.327-0.182-0.534-0.455-0.534c-0.295,0-0.475,0.192-0.525,0.534H38.5 M38.848,60.376
		c-0.234,0.174-0.447,0.256-0.777,0.256c-0.607,0-0.947-0.556-0.947-1.154c0-0.656,0.375-1.1,0.912-1.1
		c0.518,0,0.848,0.391,0.848,1.191h-1.371c0.059,0.43,0.281,0.652,0.654,0.652c0.234,0,0.457-0.097,0.682-0.261V60.376z"/>
	<rect x="40.87" y="57.297" fill="#0054A6" width="0.387" height="3.291"/>
	<polyline fill="#0054A6" points="41.995,57.697 41.995,57.133 42.377,57.133 42.377,57.697 42.278,58.358 42.096,58.358 
		41.995,57.697 	"/>
	<polyline fill="#0054A6" points="44.84,57.722 43.584,57.722 43.584,58.716 44.795,58.716 44.795,59.141 43.584,59.141 
		43.584,60.163 44.879,60.163 44.879,60.588 43.159,60.588 43.159,57.298 44.84,57.298 44.84,57.722 	"/>
	<path fill="#0054A6" d="M45.895,58.706h0.008c0.148-0.207,0.365-0.328,0.582-0.328c0.371,0,0.666,0.279,0.666,0.873v1.337h-0.387
		v-1.341c0-0.319-0.148-0.526-0.383-0.526c-0.17,0-0.305,0.087-0.486,0.312v1.555h-0.387v-2.166h0.387V58.706"/>
	<path fill="#0054A6" d="M49.208,59.284c-0.012-0.327-0.182-0.534-0.455-0.534c-0.297,0-0.475,0.192-0.525,0.534H49.208
		 M49.555,60.376c-0.234,0.174-0.447,0.256-0.777,0.256c-0.607,0-0.947-0.556-0.947-1.154c0-0.656,0.373-1.1,0.912-1.1
		c0.518,0,0.848,0.391,0.848,1.191h-1.373c0.061,0.43,0.283,0.652,0.656,0.652c0.234,0,0.455-0.097,0.682-0.261V60.376z"/>
	<path fill="#0054A6" d="M50.657,58.422v0.497h0.01c0.195-0.382,0.381-0.541,0.564-0.541c0.156,0,0.303,0.082,0.465,0.251
		l-0.205,0.372c-0.117-0.126-0.27-0.213-0.361-0.213c-0.264,0-0.473,0.295-0.473,0.666v1.134H50.27v-2.166H50.657"/>
	<path fill="#0054A6" d="M52.737,60.693c-0.26,0-0.443,0.137-0.443,0.329c0,0.217,0.191,0.332,0.543,0.332
		c0.338,0,0.539-0.115,0.539-0.312C53.375,60.767,52.975,60.693,52.737,60.693 M52.836,58.793c-0.213,0-0.387,0.179-0.387,0.391
		c0,0.236,0.156,0.396,0.391,0.396c0.219,0,0.373-0.17,0.373-0.406C53.213,58.967,53.042,58.793,52.836,58.793z M53.756,58.755
		h-0.398c0.15,0.168,0.205,0.289,0.205,0.472c0,0.179-0.092,0.387-0.184,0.488c-0.26,0.309-0.791,0.153-0.791,0.41
		c0,0.12,0.205,0.192,0.596,0.279c0.418,0.093,0.564,0.328,0.564,0.604c0,0.429-0.344,0.689-0.92,0.689
		c-0.525,0-0.9-0.274-0.9-0.655c0-0.319,0.152-0.508,0.492-0.599c-0.135-0.092-0.195-0.179-0.195-0.274
		c0-0.142,0.121-0.262,0.307-0.31v-0.01c-0.143-0.068-0.252-0.16-0.326-0.275c-0.068-0.11-0.104-0.245-0.104-0.405
		c0-0.463,0.326-0.747,0.852-0.747h0.803V58.755z"/>
	<path fill="#0054A6" d="M54.499,58.021c-0.127,0-0.23-0.116-0.23-0.255c0-0.14,0.104-0.256,0.23-0.256
		c0.125,0,0.23,0.116,0.23,0.256C54.729,57.904,54.624,58.021,54.499,58.021 M54.69,60.588h-0.387v-2.167h0.387V60.588z"/>
	<path fill="#0054A6" d="M56.766,59.284c-0.014-0.327-0.184-0.534-0.457-0.534c-0.295,0-0.475,0.192-0.525,0.534H56.766
		 M57.114,60.376c-0.236,0.174-0.449,0.256-0.779,0.256c-0.607,0-0.945-0.556-0.945-1.154c0-0.656,0.373-1.1,0.91-1.1
		c0.518,0,0.848,0.391,0.848,1.191h-1.371c0.059,0.43,0.281,0.652,0.656,0.652c0.232,0,0.455-0.097,0.682-0.261V60.376z"/>
</g>
</svg>
