<?xml version="1.0" encoding="utf-8"?>
<!-- Generator: Adobe Illustrator 25.4.1, SVG Export Plug-In . SVG Version: 6.00 Build 0)  -->
<svg version="1.1" xmlns="http://www.w3.org/2000/svg" xmlns:xlink="http://www.w3.org/1999/xlink" x="0px" y="0px"
	 viewBox="0 0 1050.23 630.07" style="enable-background:new 0 0 1050.23 630.07;" xml:space="preserve">
<style type="text/css">
	.st0{fill:#B9CD00;}
	.st1{fill:#5A696B;}
	.st2{display:none;}
</style>
<g id="Calque_1">
	<g>
		<path class="st0" d="M304.38,142.7c15.35,8.6,32.75,18.35,51.15,36.85c22.92,23.03,37.28,53.46,40.44,85.69
			c0.08,0.87,0.51,1.66,1.2,2.21c0.67,0.55,1.51,0.8,2.34,0.7c0.87-0.08,1.65-0.5,2.2-1.17c0.55-0.67,0.8-1.51,0.72-2.38
			c-3.3-33.71-18.32-65.55-42.29-89.64c-19.02-19.12-36.84-29.11-52.56-37.92c-21.48-12.04-38.43-21.54-48.33-49.49
			c-0.42-1.17-1.62-1.93-3.06-1.93h0c-1.44,0-2.64,0.76-3.06,1.93c-9.9,27.94-26.84,37.44-48.29,49.47
			c-15.73,8.82-33.55,18.8-52.6,37.94c-57.17,57.46-57.17,150.71,0.01,207.89c27.76,27.76,64.68,43.06,103.94,43.06
			c14.2,0,28.28-2.04,41.85-6.06c0.83-0.25,1.52-0.8,1.93-1.56c0.41-0.76,0.51-1.64,0.26-2.47c-0.25-0.84-0.81-1.53-1.57-1.94
			c-0.76-0.41-1.63-0.5-2.46-0.25c-12.98,3.84-26.44,5.79-40.01,5.79c-37.53,0-72.82-14.62-99.35-41.15
			c-54.65-54.65-54.65-143.79,0.01-198.72c18.4-18.49,35.8-28.24,51.16-36.85c19.82-11.11,36.92-20.7,47.96-44.82l0.23-0.5l0.23,0.5
			C267.45,122,284.57,131.59,304.38,142.7z"/>
		<g>
			<g>
				<g>
					<path class="st1" d="M265.65,302.83c-6.59,12.48-36.37,63.62-56.68,160.68c0,0-1.6-80.22,44.38-196.23
						c0,0-55.62-40.64-62.02-45.98c-6.41-5.35-106.41-83.42-106.41-86.09c0-2.67,177.04,92.43,181.8,96.24
						c2.66,2.13,4.27,0.18,5.88-4.27c3.41-9.45,2.68-18.72,20.32-13.91c17.64,4.82,28.46,10.17,41.78,11.73
						c13.92,1.64,89.77,12.34,91.9,14.48c2.14,2.14-4.56,1.54-18.07-0.31c-22.95-3.14-88.13-12.75-90.48-9.85
						c-3.45,4.27-0.88,7.71-2.11,12.52c-1.28,5.01-3.24,9.95-8.98,16.56C297.97,268.74,277.73,279.95,265.65,302.83z"/>
				</g>
			</g>
		</g>
		<g>
			<polygon class="st0" points="333.32,471.37 326.61,471.37 326.61,515.94 349.34,515.94 349.34,509.72 333.32,509.72 			"/>
			<polygon class="st0" points="375.78,496.36 389.17,496.36 389.17,490.15 375.78,490.15 375.78,477.65 391.13,477.65 
				391.13,471.37 369.07,471.37 369.07,515.94 391.8,515.94 391.8,509.72 375.78,509.72 			"/>
			<polygon class="st0" points="466.11,503.5 451.55,471.88 451.31,471.37 443.52,471.37 443.52,515.94 450.04,515.94 
				450.04,483.42 463.1,512.02 469.12,512.02 482.17,483.42 482.17,515.94 488.7,515.94 488.7,471.37 480.97,471.37 			"/>
			<path class="st0" d="M531.81,470.58c-12.95,0-22.71,9.92-22.71,23.08c0,13.15,9.74,23.07,22.66,23.07
				c12.98,0,22.77-9.92,22.77-23.07C554.53,480.5,544.76,470.58,531.81,470.58z M531.81,510.34c-9.02,0-15.82-7.17-15.82-16.68
				c0-9.51,6.8-16.69,15.82-16.69c9.02,0,15.82,7.17,15.82,16.69C547.64,503.16,540.84,510.34,531.81,510.34z"/>
			<path class="st0" d="M601.78,499.59c0,6.87-3.72,10.81-10.2,10.81c-6.44,0-10.13-3.92-10.13-10.75v-28.28h-6.71v28.34
				c0,10.5,6.45,17.02,16.84,17.02s16.84-6.55,16.84-17.08v-28.28h-6.65V499.59z"/>
			<polygon class="st0" points="646.58,506.64 633.94,471.95 633.74,471.37 626.41,471.37 643.13,515.37 643.34,515.94 
				649.88,515.94 666.81,471.37 659.49,471.37 			"/>
			<polygon class="st0" points="691.75,496.36 705.14,496.36 705.14,490.15 691.75,490.15 691.75,477.65 707.1,477.65 707.1,471.37 
				685.04,471.37 685.04,515.94 707.77,515.94 707.77,509.72 691.75,509.72 			"/>
			<polygon class="st0" points="751.56,503.5 737,471.88 736.76,471.37 728.96,471.37 728.96,515.94 735.49,515.94 735.49,483.42 
				748.55,512.02 754.57,512.02 767.62,483.42 767.62,515.94 774.15,515.94 774.15,471.37 766.41,471.37 			"/>
			<polygon class="st0" points="803.76,496.36 817.15,496.36 817.15,490.15 803.76,490.15 803.76,477.65 819.11,477.65 
				819.11,471.37 797.05,471.37 797.05,515.94 819.78,515.94 819.78,509.72 803.76,509.72 			"/>
			<polygon class="st0" points="869.55,504.38 847.53,471.76 847.28,471.37 840.98,471.37 840.98,515.94 847.69,515.94 
				847.69,483.05 869.7,515.55 869.96,515.94 876.19,515.94 876.19,471.37 869.55,471.37 			"/>
			<polygon class="st0" points="895.55,471.37 895.55,477.65 907.11,477.65 907.11,515.94 913.81,515.94 913.81,477.65 
				925.31,477.65 925.31,471.37 			"/>
		</g>
		<g>
			<path class="st1" d="M405.59,333.91c-5-4.79-15-11.88-28.76-11.88c-20.63,0-34.38,15.84-34.38,36.47
				c0,20.84,15,36.88,35.22,36.88c13.96,0,23.76-7.92,28.34-12.09l6.46,18.75c-5.42,4.79-17.92,13.54-36.05,13.54
				c-33.13,0-56.89-24.38-56.89-57.1c0-32.51,24.38-57.1,56.68-57.1c17.92,0,30.01,7.92,36.26,13.34L405.59,333.91z"/>
			<path class="st1" d="M476.24,301.4c33.55,0,57.72,24.38,57.72,57.1s-24.59,57.1-57.72,57.1c-33.34,0-57.51-23.96-57.51-56.89
				S443.52,301.4,476.24,301.4z M476.24,395.38c20.21,0,35.01-15.63,35.01-36.88c0-21.26-14.79-36.88-35.01-36.88
				c-20.42,0-34.59,15.84-34.59,37.09C441.65,380.17,456.03,395.38,476.24,395.38z"/>
			<path class="st1" d="M547.51,262.23h22.71v150.66h-22.71V262.23z"/>
			<path class="st1" d="M601.69,263.06c7.92,0,14.17,6.25,14.17,14.17c0,7.92-6.25,14.17-14.17,14.17
				c-7.92,0-14.17-6.25-14.17-14.17C587.52,269.31,593.77,263.06,601.69,263.06z M590.44,304.11h22.71v108.78h-22.71V304.11z"/>
			<path class="st1" d="M633.36,262.23h22.71v49.88c6.3-4.39,14.59-10.71,35.22-10.71c31.05,0,51.68,23.76,51.68,57.31
				c0,33.34-22.09,56.89-53.14,56.89c-21.05,0-32.09-9.18-35.01-12.93v10.22h-21.46V262.23z M687.54,395.59
				c18.55,0,32.51-14.38,32.51-36.68c0-21.88-13.34-37.3-32.3-37.3c-18.13,0-32.51,13.54-32.51,37.3
				C655.24,378.92,667.53,395.59,687.54,395.59z"/>
			<path class="st1" d="M809.86,324.32c-23.76,0-30.63,18.13-30.63,41.68v46.88h-22.71V304.11h22.3v13.86
				c5.42-10.09,15.63-16.57,31.05-16.57V324.32z"/>
			<path class="st1" d="M832.79,263.06c7.92,0,14.17,6.25,14.17,14.17c0,7.92-6.25,14.17-14.17,14.17s-14.17-6.25-14.17-14.17
				C818.62,269.31,824.87,263.06,832.79,263.06z M821.54,304.11h22.71v108.78h-22.71V304.11z"/>
			<path class="st1" d="M870.92,382.67c5,7.29,12.5,14.17,26.05,14.17c9.59,0,16.67-4.79,16.67-13.54
				c0-20.84-52.93-13.34-52.93-51.05c0-19.17,16.25-30.84,37.3-30.84c20.42,0,31.26,11.88,35.42,20.21l-15.63,10.42
				c-3.13-5-8.96-12.09-21.05-12.09c-8.34,0-14.59,4.38-14.59,11.88c0,20.84,53.14,12.08,53.14,50.43
				c0,20.21-17.09,33.34-39.39,33.34c-22.09,0-33.76-11.88-39.18-21.67L870.92,382.67z"/>
		</g>
	</g>
</g>
<g id="repères" class="st2">
</g>
</svg>
